<?xml version="1.0" standalone="no"?><!DOCTYPE svg PUBLIC "-//W3C//DTD SVG 1.1//EN" "http://www.w3.org/Graphics/SVG/1.1/DTD/svg11.dtd"><svg t="1725699797396" class="icon" viewBox="0 0 1531 1024" version="1.1" xmlns="http://www.w3.org/2000/svg" p-id="15414" xmlns:xlink="http://www.w3.org/1999/xlink" width="299.0234375" height="200"><path d="M465.900495 177.083733c111.98659 26.04861 173.407086 2.194286 194.935467-22.162285 10.064457 26.624 15.52579 56.246857 16.388876 88.888076 26.38019-16.384 39.575162-49.054476 39.575162-98.021181 0-73.454933-35.050057-101.936762-93.944686-131.423086C563.960686-15.125943 493.992229 4.061867 466.797714 42.261943c-42.33021 0-68.705524 22.332952-78.545676 77.984914-9.840152 55.656838 6.519467 109.782552 17.456762 128.058514 13.843505-12.678095 31.280762-10.927543 52.311771 5.256534-0.302324-30.232381 2.325943-55.725105 7.8848-76.478172z" fill="#333333" p-id="15415"></path><path d="M916.72381 112.152381h507.123809a19.504762 19.504762 0 0 1 19.504762 19.504762v48.761905H897.219048V131.657143a19.504762 19.504762 0 0 1 19.504762-19.504762z" fill="#F9DB94" p-id="15416"></path><path d="M1087.390476 209.67619m14.628572 0l414.47619 0q14.628571 0 14.628572 14.628572l0 287.695238q0 14.628571-14.628572 14.628571l-414.47619 0q-14.628571 0-14.628572-14.628571l0-287.695238q0-14.628571 14.628572-14.628572Z" fill="#F2F2F2" p-id="15417"></path><path d="M945.980952 243.809524m14.628572 0l409.6 0q14.628571 0 14.628571 14.628571l0 0q0 14.628571-14.628571 14.628572l-409.6 0q-14.628571 0-14.628572-14.628572l0 0q0-14.628571 14.628572-14.628571Z" fill="#B7E1F5" p-id="15418"></path><path d="M945.980952 302.32381m14.628572 0l409.6 0q14.628571 0 14.628571 14.628571l0 0q0 14.628571-14.628571 14.628571l-409.6 0q-14.628571 0-14.628572-14.628571l0 0q0-14.628571 14.628572-14.628571Z" fill="#B7E1F5" p-id="15419"></path><path d="M945.980952 360.838095m14.628572 0l146.285714 0q14.628571 0 14.628572 14.628572l0 0q0 14.628571-14.628572 14.628571l-146.285714 0q-14.628571 0-14.628572-14.628571l0 0q0-14.628571 14.628572-14.628572Z" fill="#B7E1F5" p-id="15420"></path><path d="M443.601676 302.32381a4.87619 4.87619 0 0 1 4.959086 4.178895l0.048762 0.565638 4.87619 180.419047a4.87619 4.87619 0 0 1-9.703619 0.828953l-0.048762-0.565638-4.87619-180.419048A4.87619 4.87619 0 0 1 443.601676 302.32381zM624.249905 419.352381a4.87619 4.87619 0 0 1 4.754285 4.4032l0.024381 0.570514-1.219047 60.791467a4.87619 4.87619 0 0 1-9.728 0.375467l-0.024381-0.570515 1.219047-60.791466a4.87619 4.87619 0 0 1 4.973715-4.778667z" fill="#333333" p-id="15421"></path><path d="M681.033143 238.947962a4.87619 4.87619 0 0 1 5.261409 4.461714c1.662781 20.221562 1.662781 46.957714 0.009753 80.252343-2.569752 51.765638-18.119924 78.969905-56.534553 97.416533-25.614629 12.302629-60.186819 15.764724-103.716571 10.571581a4.87619 4.87619 0 1 1 1.150781-9.684114c41.847467 4.993219 74.630095 1.706667 98.343009-9.679238 34.942781-16.774095 48.615619-40.696686 51.019581-89.107505l0.321829-6.948571c1.301943-29.681371 1.194667-53.701486-0.312076-72.021334a4.87619 4.87619 0 0 1 4.456838-5.261409z" fill="#333333" p-id="15422"></path><path d="M448.828952 594.895238c25.487848 17.934629 55.393524 26.901943 89.717029 26.901943 34.318629 0 62.902857-8.967314 85.742933-26.901943H682.666667v351.085714l-307.2-12.731733V594.895238h73.362285z" fill="#9ACAF2" p-id="15423"></path><path d="M619.27619 487.619048c63.390476 0 150.698667-3.608381 207.033296 53.369904 37.556419 37.985524 99.688838 197.193143 186.397257 477.622858h-392.655238c0.170667-291.581562-0.087771-468.577524-0.775315-530.992762z" fill="#4986DE" p-id="15424"></path><path d="M431.445333 234.057143c15.481905 0 20.948114 2.199162 30.768762 14.833371a4.87619 4.87619 0 0 1-7.704381 5.987962l-1.492114-1.887086c-6.446324-7.977448-9.508571-9.108724-20.333714-9.17699L431.445333 243.809524c-14.862629 0-23.620267 7.918933-21.56739 29.544838 1.609143 16.939886 17.247086 26.731276 48.830171 28.984076a4.87619 4.87619 0 1 1-0.692419 9.723124c-35.761981-2.545371-55.686095-15.018667-57.846247-37.790476C397.526552 246.452419 411.228648 234.057143 431.445333 234.057143zM682.671543 238.933333a4.87619 4.87619 0 1 0 0 9.752381c11.488305 0 17.749333 4.096 19.270705 18.417372 1.7408 16.335238-6.573105 27.018971-20.455619 30.490819a4.87619 4.87619 0 1 0 2.369828 9.459809c18.407619-4.603124 30.061714-19.587657 27.784533-40.984381-2.130895-20.03139-13.0048-27.136-28.969447-27.136z" fill="#333333" p-id="15425"></path><path d="M126.780952 614.4m-126.780952 0a126.780952 126.780952 0 1 0 253.561905 0 126.780952 126.780952 0 1 0-253.561905 0Z" fill="#F9DB94" p-id="15426"></path><path d="M492.495238 912.920381c77.86301-2.935467 128.321829 0.146286 151.376457 9.259886 34.581943 13.663086 57.992533 77.438781 17.164191 77.438781H492.495238v-86.698667z" fill="#FFD8D8" p-id="15427"></path><path d="M452.856686 487.619048c-72.513829 0-173.251048 11.093333-217.980343 74.669104-44.734171 63.575771-147.017143 283.111619-147.017143 369.064229 0 85.95261 31.256381 87.761676 142.140952 87.761676h343.825067l16.193829-135.753143H458.68861c-0.151162-222.490819-2.096762-354.401524-5.831924-395.741866z" fill="#4986DE" p-id="15428"></path><path d="M766.244571 687.542857h424.150553a14.628571 14.628571 0 0 1 14.160457 18.295467l-79.594057 307.190247a14.628571 14.628571 0 0 1-14.175086 10.961677l-592.544914-0.624153a14.628571 14.628571 0 0 1-14.014172-10.483809l-6.192762-20.967619a14.628571 14.628571 0 0 1 14.033677-18.773334h163.786362a14.628571 14.628571 0 0 0 14.238476-11.273752l61.908114-263.046095a14.628571 14.628571 0 0 1 14.238476-11.278629z" fill="#B7E1F5" p-id="15429"></path><path d="M909.989484 830.492496a41.447619 46.32381 22 1 0 76.859127 31.053103 41.447619 46.32381 22 1 0-76.859127-31.053103Z" fill="#FFFFFF" p-id="15430"></path><path d="M906.971429 180.419048v302.323809h526.628571V180.419048h9.752381v312.07619H897.219048V180.419048zM499.551086 234.871467c22.713295-15.057676 54.125714-13.204724 69.3248 0.312076a4.87619 4.87619 0 0 1-6.475581 7.285028c-11.858895-10.542324-38.395124-12.107581-57.456153 0.526629a4.87619 4.87619 0 0 1-5.393066-8.123733zM597.723429 242.4832c16.364495-26.394819 60.528152-21.947733 69.9392 0.536381a4.87619 4.87619 0 0 1-9.001448 3.769295c-6.38781-15.281981-40.530895-18.724571-52.653105 0.828953-5.558857 8.962438-6.660876 33.904152-2.696533 73.728a4.87619 4.87619 0 0 1-4.291048 5.3248l-0.565638 0.034133H565.638095a4.87619 4.87619 0 0 1-0.570514-9.718248L565.638095 316.952381h27.452953l-0.195048-2.194286-0.414476-4.944457c-2.696533-34.03581-1.233676-55.988419 4.807924-66.608762l0.429104-0.721676z" fill="#333333" p-id="15431"></path><path d="M624.152381 253.561905m7.314286 0l0 0q7.314286 0 7.314285 7.314285l0 9.752381q0 7.314286-7.314285 7.314286l0 0q-7.314286 0-7.314286-7.314286l0-9.752381q0-7.314286 7.314286-7.314285Z" fill="#333333" p-id="15432"></path><path d="M536.380952 253.561905m7.314286 0l0 0q7.314286 0 7.314286 7.314285l0 9.752381q0 7.314286-7.314286 7.314286l0 0q-7.314286 0-7.314286-7.314286l0-9.752381q0-7.314286 7.314286-7.314285Z" fill="#333333" p-id="15433"></path><path d="M536.380952 331.580952a4.87619 4.87619 0 0 1 4.876191 4.876191c0 7.470324 7.9872 16.223086 18.076038 19.958247 6.729143 2.491733 17.047162 3.998476 30.837029 4.422705a4.87619 4.87619 0 0 1-0.302324 9.752381c-14.755352-0.458362-26.024229-2.101638-33.923657-5.027352C542.398171 360.540648 531.504762 348.598857 531.504762 336.457143a4.87619 4.87619 0 0 1 4.87619-4.876191z" fill="#333333" p-id="15434"></path><path d="M199.92381 843.580952h107.27619a14.628571 14.628571 0 0 1 14.628571 14.628572v160.914286H185.295238v-160.914286a14.628571 14.628571 0 0 1 14.628572-14.628572z" fill="#FFFFFF" p-id="15435"></path><path d="M218.097371 746.242438a4.87619 4.87619 0 0 1 2.6624 9.381791c-15.642819 4.437333-18.753829 11.766248-14.043428 20.314209 0.989867 1.799314 2.360076 3.184152 5.407695 5.563733l1.443352 1.111772c7.645867 5.861181 10.737371 9.923048 10.737372 17.700571 0 11.132343-5.12 16.393752-17.144686 21.596648l-4.339809 1.80419a4.87619 4.87619 0 1 1-3.705905-9.025828l3.028114-1.243429c9.68899-4.03261 12.409905-6.631619 12.409905-13.131581 0-3.393829-1.155657-5.305295-5.15901-8.572343l-2.330819-1.823695c-4.700648-3.603505-6.953448-5.758781-8.889295-9.27939-7.748267-14.062933-1.721295-28.252648 19.924114-34.396648zM266.683733 736.543695a4.87619 4.87619 0 1 1 3.013486 9.274515c-15.725714 5.100495-19.090286 14.155581-14.101943 24.507733 0.950857 1.969981 2.18941 3.4816 4.725029 5.812419l2.2528 2.004114c7.509333 6.573105 10.493562 11.0592 10.493562 19.475505 0 12.175848-5.012724 18.051657-16.93501 23.942095l-2.291809 1.102019-2.038248 0.950857a4.87619 4.87619 0 0 1-4.144762-8.825904l3.023238-1.423848c9.801143-4.661638 12.63421-7.753143 12.63421-15.745219 0-4.583619-1.404343-6.958324-6.222019-11.298133l-1.511619-1.336077c-4.656762-4.081371-6.890057-6.524343-8.767391-10.420419-7.460571-15.491657-1.692038-31.022324 19.870476-38.019657zM320.9216 746.140038a4.87619 4.87619 0 0 1 1.813943 9.586591c-24.790552 4.690895-29.159619 11.546819-22.625524 19.456 1.345829 1.633524 3.208533 2.974476 6.802286 4.929828l3.8912 2.033372c11.454171 5.851429 15.901257 9.742629 15.901257 18.168685 0 11.844267-7.250895 16.783848-25.170895 21.903848l-6.109867 1.687162a4.87619 4.87619 0 0 1-2.569752-9.411048l4.554362-1.243428c14.906514-4.139886 19.543771-7.089981 19.543771-12.936534 0-2.920838-2.00899-4.934705-8.582095-8.440685l-5.422324-2.818439c-5.168762-2.750171-7.899429-4.681143-10.357029-7.660495-12.14659-14.70659-2.813562-29.354667 28.330667-35.254857z" fill="#FFFFFF" p-id="15436"></path><path d="M616.448 595.797333a4.87619 4.87619 0 1 1 5.656381 7.948191C595.529143 622.640762 568.466286 629.028571 538.819048 629.028571c-27.716267 0-61.766705-7.109486-83.18781-21.611276a4.87619 4.87619 0 1 1 5.461333-8.079847C480.592457 612.537295 512.877714 619.27619 538.819048 619.27619c27.808914 0 52.970057-5.9392 77.628952-23.478857zM1395.907048 579.535238a4.87619 4.87619 0 0 1 6.168381 3.091505c7.836038 23.537371 4.622629 57.422019-8.094477 86.528-7.94819 18.197943-18.885486 33.182476-32.134095 43.593143l-0.970362 0.741181-0.117028 0.692419c-2.004114 11.473676-6.568229 23.600762-14.014172 35.459657l-0.941105 1.477486c-21.830705 33.616457-55.066819 47.952457-98.889142 42.837333a4.87619 4.87619 0 0 1 1.131276-9.688991c40.252952 4.700648 69.8368-8.060343 89.575619-38.458514 4.993219-7.684876 8.630857-15.408762 11.049447-22.869333l0.643658-2.101638-0.941105 0.482743a71.192381 71.192381 0 0 1-19.943619 6.543847l-1.755429 0.277943c-29.578971 4.266667-47.508724-9.45981-47.601371-31.695238-0.078019-20.114286 14.901638-39.399619 35.449905-42.505752 28.857295-4.36419 46.704152 16.471771 47.416076 44.958476l0.014628 0.794819 1.1264-1.106895c8.323657-8.35779 15.4624-19.00739 21.128534-31.451429l0.838704-1.88221c11.805257-27.0336 14.789486-58.480152 7.772648-79.550171a4.87619 4.87619 0 0 1 3.086629-6.163505z m-43.875962 127.717181c2.7648-27.155505-11.761371-47.338057-36.049676-43.666286-15.555048 2.350324-27.218895 17.359238-27.155505 32.821638 0.06339 16.028038 12.4928 25.53661 36.4544 22.079391 9.264762-1.336076 17.944381-4.788419 25.873066-10.054705l0.804572-0.551009 0.073143-0.633905z" fill="#333333" p-id="15437"></path><path d="M269.229105 204.614705L235.666286 325.924571 145.876114 229.634438z" fill="#B7E1F5" p-id="15438"></path></svg>