<?xml version="1.0" standalone="no"?><!DOCTYPE svg PUBLIC "-//W3C//DTD SVG 1.1//EN" "http://www.w3.org/Graphics/SVG/1.1/DTD/svg11.dtd"><svg t="1725699682019" class="icon" viewBox="0 0 1068 1024" version="1.1" xmlns="http://www.w3.org/2000/svg" p-id="6386" xmlns:xlink="http://www.w3.org/1999/xlink" width="208.59375" height="200"><path d="M916.697675 383.218608C861.061755 164.447823 668.825081 6.526386 443.179853 0.193228 323.889069-3.156051 198.360502 36.407297 106.968809 174.856101c-163.3764 247.489855 10.039164 418.513608 130.940178 499.780671a756.508291 756.508291 0 0 1 156.366946 140.542103c81.664666 96.908588 238.768602 217.330249 425.873597 28.647228 135.612321-136.758062 133.606966-314.885407 96.549384-460.607495z" fill="#F2F2F2" p-id="6387"></path><path d="M1067.706271 870.408521c0 53.701166-234.337992 153.591157-529.517901 153.591157S0 930.304117 0 876.601712s243.008461-47.068258 538.18837-47.068257 529.517901-12.824862 529.517901 40.875066z" fill="#3F3D56" p-id="6388"></path><path d="M1067.706271 870.408521c0 53.701166-234.337992 153.591157-529.517901 153.591157S0 930.304117 0 876.601712s243.008461-47.068258 538.18837-47.068257 529.517901-12.824862 529.517901 40.875066z" opacity=".1" p-id="6389"></path><path d="M0 875.982393a534.472455 97.233112 0 1 0 1068.94491 0 534.472455 97.233112 0 1 0-1068.94491 0Z" fill="#3F3D56" p-id="6390"></path><path d="M736.81518 545.295677v260.044693l43.497263 70.888512 3.31088 5.391793h171.629448l3.466949-336.324998H736.81518z" fill="#2F2E41" p-id="6391"></path><path d="M736.81518 545.295677v260.044693l43.497263 70.888512 2.669266-330.933205h-46.166529z" opacity=".1" p-id="6392"></path><path d="M322.477021 538.360541v260.044693l-43.497263 70.888512-3.310881 5.391793H104.038191l-3.466949-336.324998h221.905779z" fill="#2F2E41" p-id="6393"></path><path d="M322.477021 538.360541v260.044693l-43.497263 70.888512-2.670505-330.933205h46.167768z" opacity=".1" p-id="6394"></path><path d="M1010.728907 533.159498v15.603128H78.034217v-22.537025l86.681152-45.074051h769.733232L1010.728907 533.159498z" fill="#2F2E41" p-id="6395"></path><path d="M1010.728907 533.159498v15.603128H78.034217v-22.537025l932.69469 6.933897zM211.523512 611.173897H169.916411l-17.335983-12.136179h78.013161l-19.070077 12.136179zM211.523512 661.44899H169.916411l-17.335983-12.136179h78.013161l-19.070077 12.136179zM211.523512 732.528252H169.916411l-17.335983-12.136178h78.013161l-19.070077 12.136178zM211.523512 803.606276H169.916411l-17.335983-12.13494h78.013161l-19.070077 12.13494zM847.76745 618.107795h41.607101l17.335983-12.13494h-78.01316l19.070076 12.13494zM847.76745 668.382887h41.607101l17.335983-12.13494h-78.01316l19.070076 12.13494zM847.76745 739.46215h41.607101l17.335983-12.13494h-78.01316l19.070076 12.13494zM847.76745 810.541412h41.607101l17.335983-12.136178h-78.01316l19.070076 12.136178z" opacity=".1" p-id="6396"></path><path d="M659.594748 437.768242l-5.783203 36.920093s-28.468864 15.123774-8.451229 15.569685 114.320128 0 114.320128 0 18.237711 0-10.675824-16.014356l-5.781964-38.700017z" fill="#3F3D56" p-id="6397"></path><path d="M641.333503 489.856701a78.739002 78.739002 0 0 1 12.478042-8.259241l5.783203-36.921332 83.627908 0.079273 5.781964 36.396149a75.933486 75.933486 0 0 1 13.363669 8.794333c3.713438-0.848467 7.771217-3.997086-13.363669-15.702219l-5.783203-38.700017-83.626669 2.224595-5.783203 36.920093s-23.921823 12.710907-12.478042 15.168366z" opacity=".1" p-id="6398"></path><path d="M512.578283 180.434928m13.247237 0l350.274544 0q13.247237 0 13.247237 13.247237l0 235.954416q0 13.247237-13.247237 13.247237l-350.274544 0q-13.247237 0-13.247237-13.247237l0-235.954416q0-13.247237 13.247237-13.247237Z" fill="#3F3D56" p-id="6399"></path><path d="M525.255747 194.446405h351.414091v196.614023h-351.414091z" fill="#F2F2F2" p-id="6400"></path><path d="M700.962792 188.21977m-2.224594 0a2.224595 2.224595 0 1 0 4.449189 0 2.224595 2.224595 0 1 0-4.449189 0Z" fill="#F2F2F2" p-id="6401"></path><path d="M889.34854 406.630112v23.006469a13.24476 13.24476 0 0 1-13.247237 13.247237H525.826759a13.24476 13.24476 0 0 1-13.248476-13.247237v-23.006469z" fill="#3F3D56" p-id="6402"></path><path d="M700.962792 424.867823m-8.451229 0a8.45123 8.45123 0 1 0 16.902459 0 8.45123 8.45123 0 1 0-16.902459 0Z" fill="#F2F2F2" p-id="6403"></path><path d="M687.79235 514.277695v4.449189h-239.317318v-3.558608l0.329478-0.890581 5.898395-16.013117h228.196824l4.892621 16.013117zM779.890067 509.922642c-0.436001 1.864151-2.080912 3.831108-5.800543 5.690305-13.34509 6.672545-40.478702-1.779923-40.478702-1.779923s-20.908216-3.558608-20.908215-12.89918a16.681982 16.681982 0 0 1 1.833184-1.090002c5.611032-2.969016 24.212903-10.293085 57.197843 0.30966a13.756318 13.756318 0 0 1 6.269987 4.108563 6.559829 6.559829 0 0 1 1.886446 5.660577z" fill="#3F3D56" p-id="6404"></path><path d="M779.890067 509.922642c-16.333924 6.25884-30.892879 6.725806-45.834574-3.651505-7.535876-5.23077-14.380591-6.525147-19.519702-6.428534 5.611032-2.967778 24.212903-10.291846 57.197843 0.310899a13.756318 13.756318 0 0 1 6.269987 4.108563 6.559829 6.559829 0 0 1 1.886446 5.660577z" opacity=".1" p-id="6405"></path><path d="M753.627218 504.492452a5.783203 1.779923 0 1 0 11.566405 0 5.783203 1.779923 0 1 0-11.566405 0Z" fill="#F2F2F2" p-id="6406"></path><path d="M687.79235 514.277695v4.449189h-239.317318v-3.558608l0.329478-0.890581h238.98784z" opacity=".1" p-id="6407"></path><path d="M824.554128 287.303408c-1.888924-1.887685-26.120406-32.412689-30.210389-37.447754-4.405837-5.035065-6.29476-4.091223-9.126288-3.777847s-33.35777 5.665532-36.819764 5.980146c-3.461994 0.629228-5.664293 1.887685-3.461994 5.035065 1.888924 2.832766 22.029183 31.154232 26.43502 37.763606l-80.246425 19.196418-63.56816-106.681445c-2.518152-3.776608-3.14738-5.035065-8.811673-4.720451s-50.036035 4.091223-53.183416 4.091222c-3.146141 0.314614-6.608136 1.573071-3.461994 9.126288s53.49803 115.806494 54.756486 118.953874 5.035065 8.182445 13.532124 6.293521c8.811673-2.202299 39.022063-10.07013 55.701568-14.475966 8.810435 15.734423 26.432543 47.833736 29.895775 52.554187 4.404598 6.293522 7.551978 5.035065 14.160114 3.146141 5.350918-1.573071 82.449963-29.265309 85.911957-30.839618s5.664293-2.516913 3.146142-5.978907c-1.887685-2.516913-22.027945-29.895776-32.727303-44.057128 7.237364-1.887685 33.356531-8.811673 36.189297-9.755516 3.146141-0.943842 3.776608-2.516913 1.888923-4.405836z m-145.703508 29.895775c-0.943842 0.314614-45.944813 11.015211-48.148351 11.643201-2.516913 0.630467-2.516913 0.315853-2.516913-0.62799-0.629228-0.945081-53.49803-110.458054-54.441872-111.71651-0.630467-1.258457-0.630467-2.518152 0-2.518152s42.482819-3.77537 43.741275-3.775369c1.573071 0 1.259695 0.314614 1.888924 1.258456 0 0 58.847709 101.64638 59.791551 103.219451 1.258457 1.573071 0.629228 2.202299-0.314614 2.516913z m126.507091 23.602254c0.629228 1.258457 1.573071 1.888924-0.943843 2.518152-2.203538 0.943842-75.841827 25.804553-77.414897 26.433781s-2.518152 0.943842-4.405837-1.887684-25.804553-44.058367-25.804553-44.058367l78.35874-20.453635c1.887685-0.630467 2.516913-0.945081 3.77537 0.943842 1.259695 2.202299 25.805792 35.560069 26.43502 36.503911z m5.035065-55.385714c-1.888924 0.314614-30.525004 7.551978-30.525004 7.551978l-23.602254-32.098075c-0.629228-0.943842-1.259695-1.887685 0.314614-2.203537s28.322705-5.035065 29.581162-5.34968 2.202299-0.629228 3.776608 1.573071c1.573071 1.888924 21.713331 27.693477 22.657173 28.637319s-0.314614 1.573071-2.202299 1.888924z" fill="#FB503B" p-id="6408"></path><path d="M488.815006 193.097528m-47.374202 0a47.374202 47.374202 0 1 0 94.748404 0 47.374202 47.374202 0 1 0-94.748404 0Z" fill="#FFB9B9" p-id="6409"></path><path d="M453.9077 216.78401v74.80137h77.29475s-9.973516-62.334476-4.986758-81.035437z" fill="#FFB9B9" p-id="6410"></path><path d="M607.249891 317.765241s-73.554062-36.154615-73.554062-38.647994-7.481376-18.699723-12.466896-18.699724-47.374202-13.712965-71.060683 6.234067l-2.493379 16.206344-91.007715 59.839859 24.93379 91.007715s16.206344 17.453653 11.219587 29.920548 3.740688 76.047441 3.740688 76.047441l195.728395-6.232828v-84.774887s6.232828-19.947032 9.973517-26.17986 0-24.93379 0-24.933791l29.920548-37.400685s-3.740688-34.906068-24.93379-42.386205z" fill="#D0CDE1" p-id="6411"></path><path d="M359.78357 373.242615l5.611032-30.544822s-32.415166 140.875296-28.674478 157.08164 31.166619 41.141373 34.907306 42.387443 38.646756-107.21406 38.646756-107.214059z" opacity=".1" p-id="6412"></path><path d="M377.860259 338.958343l-21.193103 3.740688S324.253229 483.57185 327.991439 499.778194s31.167857 41.141373 34.907307 42.387444 38.647994-107.21406 38.647994-107.21406z" fill="#D0CDE1" p-id="6413"></path><path d="M614.105754 380.721513l10.59779-20.570067s14.960274 140.875296 4.986758 154.588261-49.425387 18.845883-49.425387 18.845883l-0.442194-102.373461z" opacity=".1" p-id="6414"></path><path d="M615.976098 343.945101l16.207583 16.206345s14.959036 140.875296 4.986758 154.588261-49.425387 18.845883-49.425387 18.845883l-0.442194-102.373461z" fill="#D0CDE1" p-id="6415"></path><path d="M374.120809 558.374459s-36.153377-13.714204-42.386205 12.465657 14.959036 143.368675 14.959036 143.368675 13.712965 88.513098 22.440411 91.007715 47.374202 3.740688 53.60703-7.481376-18.699723-125.913783-18.699723-125.913783l144.614745-2.493379s-8.727446 99.735161-13.714204 108.461369-4.986758 38.646756 0 38.646755 59.841097-2.493379 63.580546-9.973516 24.93379-175.781364 24.93379-175.781363 17.453653-58.593788-2.493379-54.854339-246.842047-17.452415-246.842047-17.452415z" fill="#3F3D56" p-id="6416"></path><path d="M587.302858 801.475818s12.466895-8.726207 18.699724 0 8.727446 18.700962-18.699724 33.661236-48.620272 11.219586-48.620271 8.726208v-36.153377zM371.62743 797.736369s-12.466895-8.727446-18.700962 0-8.726207 18.699723 18.700962 33.659998 48.620272 11.220825 48.620272 8.727446v-36.154616zM489.122188 133.364193a40.067474 40.067474 0 0 0-13.913624 1.981821 53.791587 53.791587 0 0 0-9.912823 5.244395l-20.915648 13.005703a9.795152 9.795152 0 0 0-5.90335 9.128765l-2.613527 19.572963c-0.658956 4.93969-1.267127 10.222482 0.943842 14.687774 1.845571 3.728301 5.364543 6.278658 8.259241 9.265015a34.008055 34.008055 0 0 1 8.962787 17.417733c1.496275 8.171297 0.538808 18.012279 7.005739 23.226946 3.501631 2.824095 8.274104 3.357949 12.765407 3.62054a190.48524 190.48524 0 0 0 36.787559-1.415764 14.640705 14.640705 0 0 0 5.559009-1.556968c2.198583-1.30057 3.582142-3.595767 4.876519-5.799305 4.669667-7.952058 9.484254-16.41072 9.43347-25.632382-0.024773-4.561905-1.192809-9.46072 0.998343-13.463999a52.638415 52.638415 0 0 1 3.761745-4.88519c2.712618-3.81129 3.240278-8.707628 3.682471-13.364908 1.412048-14.874808-0.064409-26.193486-11.026358-36.671127-10.23363-9.781527-24.795063-14.27283-38.750802-14.363251z" fill="#2F2E41" p-id="6417"></path><path d="M372.752114 705.655993l-41.607101 211.503694h20.802931l39.874246-208.035507-19.070076-3.468187zM506.241409 722.993214l26.005213 242.708711h17.335982l-15.603127-249.643847-27.738068 6.935136zM577.320672 716.058078l36.406059 161.228601h17.335982l-34.671965-164.69555-19.070076 3.466949zM438.630334 716.058078l-5.201042 128.289491h13.869033l10.402085-128.289491h-19.070076z" fill="#2F2E41" p-id="6418"></path><path d="M343.279953 683.118968s-27.738068-185.498482 50.276331-190.699524 188.96543 0 188.96543 0 64.144126-5.201042 45.07405 190.700762c0 0 17.335983 57.20899-138.690337 52.007948s-145.625474-52.009186-145.625474-52.009186zM1054.081249 758.870374c0 32.347041-19.229861 43.642184-42.951024 43.642185s-42.952263-11.295143-42.952262-43.642185 42.952263-73.498323 42.952262-73.498323S1054.081249 726.523333 1054.081249 758.870374z" fill="#5885DE" p-id="6419"></path><path d="M1010.005542 770.492518l18.305836-33.491543-18.237711 29.244252 0.198182-12.172099 12.61677-24.231482-12.564747 21.009784 0.355489-21.892934 13.511067-19.290553-13.455328 15.848377 0.222955-40.144269-1.336491 50.867162-13.682-20.941659 13.516022 25.233541-1.279513 24.450721-0.038398-0.649046-15.835991-22.125798 15.787684 24.418517-0.159784 3.058198-0.028489 0.04583 0.013625 0.251444-3.24771 32.628211h4.338951l0.520228-2.635822 15.749286-24.360301-15.710889 21.951149 0.440956-27.07168z" fill="#3F3D56" p-id="6420"></path><path d="M1038.561111 872.681422h-51.206549l-13.233612-74.796416h74.796416l-10.356255 74.796416z" fill="#2F2E41" p-id="6421"></path><path d="M179.602563 367.008548h106.5229v124.889429h-106.5229z" fill="#3F3D56" p-id="6422"></path><path d="M196.132192 386.388284h73.463642v86.129957h-73.463642z" fill="#F2F2F2" p-id="6423"></path><path d="M240.226479 404.680495l-7.460319 12.921475-7.460319-12.921475h-24.840892l32.301211 55.949295L265.06861 404.681734z" fill="#4DBA87" p-id="6424"></path><path d="M240.226479 404.680495l-7.460319 12.921475-7.460319-12.921475h-11.920655l19.380974 33.568338 19.380975-33.567099z" fill="#435466" p-id="6425"></path></svg>