<?xml version="1.0" standalone="no"?><!DOCTYPE svg PUBLIC "-//W3C//DTD SVG 1.1//EN" "http://www.w3.org/Graphics/SVG/1.1/DTD/svg11.dtd"><svg t="1725703054251" class="icon" viewBox="0 0 1024 1024" version="1.1" xmlns="http://www.w3.org/2000/svg" p-id="16286" xmlns:xlink="http://www.w3.org/1999/xlink" width="200" height="200"><path d="M482.6624 763.8528a73.728 73.728 0 0 1-73.6768-73.6256v-115.4048a73.6768 73.6768 0 0 1 147.3024 0v115.4048a73.728 73.728 0 0 1-73.6256 73.6256z m0-221.696a32.7168 32.7168 0 0 0-32.7168 32.6656v115.4048a32.7168 32.7168 0 0 0 65.3824 0v-115.4048a32.7168 32.7168 0 0 0-32.6656-32.6656zM329.9328 561.6128h40.96v193.4848h-40.96zM329.9328 492.6976h40.96v40.96h-40.96zM601.6512 561.6128h75.5712v40.96h-75.5712z" fill="#099DFD" p-id="16287"></path><path d="M677.2224 777.5232h-20.48a64.2048 64.2048 0 0 1-63.2832-64.9216V502.9376h40.96v209.92a23.2448 23.2448 0 0 0 22.3232 23.9616h20.48z" fill="#099DFD" p-id="16288"></path><path d="M679.3728 777.5232h-20.48v-40.96h20.48c65.2288 0 141.4656-40.96 141.4656-156.0064a154.112 154.112 0 0 0-153.9584-153.9584 157.5936 157.5936 0 0 0-16.8448 0.9216l-18.944 2.0992-3.4304-18.7392a151.0912 151.0912 0 0 0-298.9056 12.9536l-1.4848 14.9504-14.6944 3.1232a138.24 138.24 0 0 0-109.3632 134.7584c0 77.2608 58.3168 137.728 132.8128 137.728h20.48v40.96h-20.48c-97.28 0-173.7728-78.4896-173.7728-178.688a179.2 179.2 0 0 1 127.6416-171.264 192.1024 192.1024 0 0 1 373.76-19.7632 195.2256 195.2256 0 0 1 198.0416 194.9184c0.1024 115.7632-74.9056 196.9664-182.3232 196.9664z" fill="#099DFD" p-id="16289"></path></svg>